<?xml version="1.0" encoding="utf-8"?>
<!-- Generator: Adobe Illustrator 28.0.0, SVG Export Plug-In . SVG Version: 6.00 Build 0)  -->
<svg version="1.1" id="Warstwa_1" xmlns="http://www.w3.org/2000/svg" xmlns:xlink="http://www.w3.org/1999/xlink" x="0px" y="0px"
	 viewBox="0 0 1000 230" style="enable-background:new 0 0 1000 230;" xml:space="preserve">
<style type="text/css">
	.st0{fill:#FFFFFF;}
	.st1{fill:url(#SVGID_1_);}
	.st2{fill:url(#SVGID_00000183939311446782971430000014855898479443035023_);}
	.st3{fill:url(#SVGID_00000156551626747264088260000010425974812597099392_);}
	.st4{fill:url(#SVGID_00000070080865345866652350000010808671362756651398_);}
	.st5{fill:url(#SVGID_00000028313246855014886620000007831034534568825985_);}
	.st6{fill:url(#SVGID_00000174604344553256945790000016015690531416603290_);}
	.st7{fill:url(#SVGID_00000072985465874361311920000000909928651155483014_);}
	.st8{fill:url(#SVGID_00000015324990397300377750000013823851402148035767_);}
	.st9{fill:url(#SVGID_00000111896491566753526720000001580023110992677005_);}
	.st10{fill:url(#SVGID_00000101808265528343276480000009064591099872589219_);}
	.st11{fill:url(#SVGID_00000170974723147296386890000004436147315249202874_);}
</style>
<g>
	<g>
		<path class="st0" d="M326.5,65.2h-11.3c-10.5,0-14.4-0.4-16.7-1.7c-1.9-1.1-2.8-3-2.8-5.9c0-3.1,1.2-5.4,3.6-6.5
			c3-1.5,11.8-2.3,24.5-2.3c7.4,0,13.9,0.8,16.7,2.1c2.1,1,3.1,3,3.2,6.9h15.1v-1.3c0-10.3-2.9-14.9-11.2-17.3
			c-4.6-1.4-11.8-1.9-25.3-1.9c-22.1,0-32.3,1.6-36.8,5.8c-3.2,2.8-5,8.9-5,16.4c0,5.9,1.5,10.1,4.7,13c3.7,3.4,9.2,4.5,23.4,4.6
			h9.6c18.3,0.1,18.4,0.1,21.2,0.7c4.6,1,6.3,2.9,6.3,6.8c0,2.1-0.7,4.1-2,5.7c-1.2,1.4-3.1,2.1-6.9,2.6c-7.2,0.9-12.4,1.2-20.8,1.2
			c-9.8,0-15.1-0.6-17.5-2c-1.9-1.1-2.7-3.4-2.7-7.7v-0.7h-15.2c-0.1,1.3-0.1,2.8-0.1,3.4c0,6.3,1.3,10.3,4.3,13.3
			c4.2,4,11.7,5.1,35.8,5.1c22.6,0,31.2-1.4,35.6-5.6c3.3-3.2,4.8-8,4.8-15.1c0-6.6-1.3-11-4.1-14C352.7,66.4,346.5,65.2,326.5,65.2
			z"/>
		<polygon class="st0" points="474,104.9 489.3,104.9 489.3,78.6 539.5,78.6 539.5,67 489.3,67 489.3,49.7 542.2,49.7 542.2,37.9 
			474,37.9 		"/>
		<path class="st0" d="M682,79.2h29.8c0,4.6-0.5,7.8-1.8,9.5c-3,4.3-5.1,4.7-25,4.7c-18.2,0-22-0.5-24.9-3.1
			c-2.8-2.4-3.6-6.9-3.6-20c0-10.4,0.7-14.9,2.8-17.3c2.6-3.1,6.3-3.5,30.5-3.5c13.1,0,16.5,0.4,19.1,2.5c1.9,1.5,2.4,3.1,2.5,7.3
			h15.2c0-7.4-1.4-12.6-4.3-15.9c-4.2-4.8-11.2-6.2-30.8-6.2c-19.7,0-26.8,0.3-33,1.2c-5.3,0.7-9.2,2.5-12,5.5
			c-4.3,4.7-5.4,10.3-5.4,28c0,9.5,0.3,14,1.1,17.8c1.4,7.1,4.7,11,11.1,13.5c4.1,1.6,12.8,2.2,30.5,2.2c20.2,0,25.9-0.2,29.5-1.1
			c5.2-1.3,8.5-3.5,10.5-7.1c2.4-4.4,3.1-8.8,3.1-21.1v-7.1H682V79.2z"/>
		<path class="st0" d="M821.9,73.3c2-2.5,2.9-6.6,2.9-14c0-7.6-1.4-12.9-4.3-16.1c-3.6-3.9-8.9-5.3-20.7-5.3h-56.7v67h15.4V84h37.2
			c10.1-0.1,12.2,1.7,12.4,10.8v10h15.6V91.7c0.1-10.6-1.8-13.3-10.2-14C817.5,77,819.9,75.8,821.9,73.3z M795.2,71.7h-36.7V50.5h37
			c11.4,0,13.8,1.9,13.8,11.1C809.2,69.7,806.4,71.7,795.2,71.7z"/>
		<path class="st0" d="M954.1,70.9l42.6-32.9h-22.2l-34.1,26.7h-11.3c-0.1-2.8-0.2-4.8-0.3-6.6c-0.6-6.7-2.1-11-4.9-14.2
			c-5-5.4-11.3-6.6-35-6.6c-12.2,0-22.3,0.2-25.7,0.5c-8.6,0.7-13.4,2.2-17,5.4c-4.8,4.2-6.3,10.4-6.3,26.1c0,10.9,0.2,14.6,0.8,19
			c0.9,6.6,3.8,11.2,8.2,13.7c5.7,3.1,11.2,3.7,31.7,3.7c9.3,0,21.5-0.2,24.7-0.4c8.4-0.5,13.5-2.1,17.2-5.3
			c4.6-4.1,6.3-9.7,6.7-22.9h11l36.7,27.9h23.2L954.1,70.9z M910.6,89.2c-2.7,3-7,3.7-24.3,3.7c-19.2,0-22.4-0.3-26.1-2.3
			c-3.7-1.9-4.7-6.1-4.7-19.2c0-21.3,0.4-21.6,29-21.6c28.9,0,29.1,0.2,29.1,21.2C913.7,82.4,913,86.7,910.6,89.2z"/>
		<polygon class="st0" points="406.7,37.9 368.3,104.9 385.7,104.9 393.1,91.7 399.1,80.8 417,48.8 435.2,80.8 440.9,91.7 
			448.5,104.9 465.4,104.9 427.7,37.9 		"/>
		<polygon class="st0" points="408.6,94.1 402.7,104.9 431.4,104.9 425.6,94.1 		"/>
		<polygon class="st0" points="582.7,49.7 626.9,49.7 626.9,37.9 555.7,37.9 555.7,49.7 571,49.7 		"/>
		<polygon class="st0" points="571,76.1 624.2,76.1 624.2,65.6 582.7,65.6 571,65.6 555.7,65.6 555.7,104.9 627.5,104.9 627.5,93.2 
			571,93.2 		"/>
	</g>
	<polygon class="st0" points="215.2,41.6 209.5,48.4 199.6,60.1 203.4,90.2 200.9,107.2 209,90.7 205,59.9 210.2,50.6 	"/>
	<path class="st0" d="M34.8,34.9l14.9,8.2c0.7-3.7,2.1-9.8,3.8-13.4L38,24.9l-12.3-3.8l1,9.3L34.8,34.9z"/>
	<path class="st0" d="M190.3,43.1l2.5-8.4l10.8-4.5l5.9-2.4l4.7-6.6l-12.3,3.8l-15.5,4.8C188.2,33.3,189.5,39.3,190.3,43.1z"/>
	<path class="st0" d="M191.3,71.4c2.3-6.4-6.5-12.7-15.2-3.7c-8.7,9-17.2,7.5-23.7,10.8c-6.3,3.2-9.4,10.3-9.6,10.6
		c0.8-1.1,1.7-2.1,2.6-3c5.8-5,14-5.7,21-7.4c2.3-0.6,5-1.2,6.8-2.6c0.5-0.4,0.9-1,1.4-1.4c2.4-2.1,5.2-3.6,8.1-4.8
		c0.8-0.3,1.6-0.7,2.5-0.8C187.6,68.7,189.9,69.7,191.3,71.4z"/>
	<polygon class="st0" points="183,102 150.6,129.3 141.7,131.3 134.8,143.2 139.1,157.9 137.8,144.5 144.1,134.2 153.7,132.7 
		188,102.8 	"/>
	<path class="st0" d="M178.4,158.6c0.6-0.9,1.3-1.8,1.9-2.7c2.5-3.5,4.9-7.4,7.1-11.4l-4-7.4c0,0-2.3,5.3-6.5,12.5
		c-0.5,0.8-1,1.7-1.5,2.5c-0.7,1.1-1.4,2.3-2.2,3.5c-0.5,0.8-1.1,1.6-1.6,2.4c-0.3,0.4-0.5,0.8-0.8,1.2c-0.5,0.8-1.1,1.5-1.7,2.3
		c-0.4,0.5-0.8,1.1-1.2,1.6c-0.9,1.2-1.9,2.4-2.9,3.6c-0.3,0.3-0.6,0.7-0.9,1c-1.2,1.4-2.5,2.8-3.8,4.1c-0.5,0.5-1,1-1.6,1.6
		c2.9,7.7-1,14.8-4.1,18c0.3-0.2,8.9-5.6,9.3-15.6C164,175.8,170.9,168.8,178.4,158.6z"/>
	<path class="st0" d="M152.3,66.8l14.8-8.6c0.3-0.3,13.1-12.9,13.1-12.9l0.6-0.5c1.5-0.3,3-0.5,4.5-0.6c-0.7-3.9-2.1-9.7-3.6-12.5
		c-1.1-2.1-2.5-2.9-6.7-1.5c1.6,3.7,3.3,9.9,3.3,9.9l-13.8,16L152.3,66.8z"/>
	<path class="st0" d="M167.8,104.1c10.1-5.1,12.3-22.2,12.8-27.4c-0.9,0.5-1.7,1.1-2.4,1.8c-0.4,0.3-0.7,0.7-1.1,1.1
		c-1.4,1.3-3,2.2-4.7,2.8c-0.5,3.3-1.9,11-5.2,16.7c-4,6.8-20.2,9.1-26.6,9.8C140.5,108.8,155.9,110.1,167.8,104.1z"/>
	<path class="st0" d="M169.5,148.9c0.6-1.3,1.3-2.7,1.9-4.1l-1.8-3.3c-0.9,0.8-1.8,1.6-2.7,2.5L169.5,148.9z"/>
	<path class="st0" d="M165.4,90.1c0.7-2.3,1.2-4.5,1.5-6.2c-2.6,0.6-5.1,1-7.5,1.6c-3.8,1-7.5,1.9-10.5,4.4
		c-0.6,0.5-1.2,1.2-1.7,1.9c1-0.8,2.1-1.5,3.3-2C155.8,87.5,161.9,88.9,165.4,90.1z"/>
	<path class="st0" d="M163.7,159c0.7-1.1,1.5-2.2,2.2-3.5l-4-7.4c-0.9,0.7-1.9,1.5-2.9,2.2L163.7,159z"/>
	<path class="st0" d="M150.2,22.1c-3.4,5.7-5.5,17.9-6.1,21.6c0,0,5.2-10.6,9.4-16.2c3.1-4.2,10.8-9.4,14.3-11.7
		c-2.7-1.5-6-3.1-9.1-4.6C156.8,13.2,153.1,17.2,150.2,22.1z"/>
	<path class="st0" d="M162.7,96.4c0.3-0.5,0.6-1,0.8-1.6c-2.8-0.9-7.4-2-11.1-0.4c-2.1,0.9-3.6,2.6-4.5,5.2l-0.2,0.6l-2.9,2.9
		C152.6,101.8,160.9,99.5,162.7,96.4z"/>
	<path class="st0" d="M159.6,164.7l-5.7-10.5c-0.9,0.7-1.9,1.4-2.9,2.1l6.2,11.4C157.8,166.8,158.6,165.9,159.6,164.7z"/>
	<path class="st0" d="M133.7,33.7c0,0,5.6-18,20.9-26.2c-2.8-0.7-11-2.7-14.2-3c-1,0.1-3.3,3.3-5.1,6.9l3.1,2.5l-0.7,1.7
		C137.8,15.7,134.8,23.8,133.7,33.7z"/>
	<path class="st0" d="M120,99c-8,0-14.5-1.4-18.9-2.9c2,4.8,3.2,10,3.9,14.6c0.2,1.6,0.4,3.2,0.1,4.9c-0.2,1.3-0.7,2.1-1.2,2.9
		c-1.9,2.8-4.4,5.1-7.1,7.1l4.8,1.1l4.3,7.5l4.1-15.7l2.9-1.5l2-10.1c0,0,3.5-0.6,8.3-2.3l0.5-0.2c1.1-0.4,2.2-0.8,3.3-1.3
		c0,0,0.1-0.1,0.6-0.2c3.7-1.6,7.7-3.8,11.3-6.7C134.4,97.5,128,99,120,99z"/>
	<path class="st0" d="M102.9,175.3l5.6,20.4l5.7-6.9l5.7-0.7v-35.3l10.1-7.7c-1.8-0.3-5.3-0.6-10.1-0.6c-4.8,0-8.3,0.4-10.1,0.6
		l-5,17.3L102.9,175.3z"/>
	<path class="st0" d="M107.7,81.6l4.6-9l7.6-1.5V45.6c0,0,6.4-5.5,13.9-6.3c-1.4-0.7-6.7-3.1-13.9-3.1c-7.2,0-12.5,2.4-13.9,3.1
		L95,52.7c2.7,4.7,5.5,11.4,8.6,19.3C105.2,76,106.7,79.8,107.7,81.6z"/>
	<path class="st0" d="M111.1,32.1l5.8-6.3h3V11.3c0,0,6.2-3.5,12.5-5.2c-2.9-0.5-7.3-1-12.5-1c-5.2,0-9.6,0.5-12.5,1
		c1.1,1.9,2,3.8,2.5,5.1l0.7,1.8l-3.3,2.7C108.4,18.5,110.2,24.7,111.1,32.1z"/>
	<path class="st0" d="M70.1,62.5c0,0-0.7-0.5-0.7-0.5c0,0-11.7-11.4-12.7-12.5c-1-0.2-2.1-0.3-3.1-0.3c-1.3-0.1-2.5,0-3.4,0.3
		c-0.9,1.3-1.6,3.6-2.1,5.4c-0.7,2.6-1.2,5.3-1.5,8c-0.2,1.3-0.3,2.7-0.3,4c0,0.7,0,1.4,0.3,2.1c0.4,1,1.2,1.8,2.1,2.4
		c1.6-1.9,4.4-2.8,6.8-2c2.8,1,5.4,2.1,7.8,3.9c1.1,0.8,2.2,1.7,3.1,2.7c1.8,1.6,4.6,2.2,7,2.8c7,1.7,15.2,2.4,21,7.4
		c1,0.9,1.8,1.9,2.6,3c15.7,6.3,30.4,1.2,30.4,1.2l0,0c-2.7,0.6-5.5,0.8-7.5,0.8c-4.6,0-12.8-0.8-16.2-6.1
		c-1.2-1.9-2.8-5.9-4.9-11.1c-3.2-8.1-8-20.3-11.4-22.8c-3-2.2-6.7-6.3-10.2-10.2c-3.6-4-8.2-9.1-10.3-9.9c-5.8-2.3-7.4-1.6-8.7,0.8
		c-1.5,2.8-2.8,8.6-3.6,12.5c1.5,0.1,3,0.4,4.5,0.6l0.6,0.5c0,0,12.9,12.6,13.1,12.9c1.2,0.7,14.4,8.4,14.8,8.6l-17.4-4.3L70.1,62.5
		z"/>
	<path class="st0" d="M119.1,112l-1.7,8.4l-3.1,1.6l-4.7,17.9c0,0,4.1-2.8,10.3-5.7L119.1,112z"/>
	<path class="st0" d="M81.2,173.4c-1.5-1.5-4-4.2-6.8-8c-0.9-1.2-1.9-2.6-2.8-4.1c-0.3-0.4-0.5-0.8-0.8-1.2c-0.5-0.8-1-1.6-1.5-2.5
		c-0.7-1.2-1.4-2.4-2.1-3.7c-0.5-0.9-0.9-1.8-1.4-2.8c-3.2-6.6-6.1-14.5-7.8-23.8L55.5,114l7.1,11.5c0.1,0.1,3,4.6,10.6,11.7
		c0.6,0.6,1.3,1.2,1.9,1.8c0.9,0.8,1.8,1.6,2.8,2.4c0.6,0.5,1.3,1.1,2,1.7c0.3,0.3,0.7,0.5,1,0.8c0.7,0.5,1.3,1.1,2,1.6
		c0.9,0.7,1.9,1.5,2.9,2.2c0.7,0.5,1.4,1,2.1,1.5c0.3,0.2,0.7,0.5,1,0.7c0.7,0.5,1.4,1,2.1,1.5c1,0.7,1.9,1.3,3,2
		c0.7,0.5,1.4,0.9,2.1,1.4c1.5,1,3.1,2,4.7,3l4.2-14.8l-6.9-11.9l-8.9-2L56.9,102l-5,0.8c-0.5,4.3-1.2,16.7,4.2,33.2l0.3,1.1l-4,7.4
		c1.5,4.2,7.3,20.3,13,31.2c4.2,8,15.7,19.4,23.3,26.5l-3.6-10.8C82.2,188.2,78.3,181.1,81.2,173.4z"/>
	<path class="st0" d="M104.6,200.8l-6.9-25.2l1.9-12.4c-2.1-1.3-4-2.5-5.9-3.7c-0.7-0.5-1.4-0.9-2.1-1.4l-6.5,12l-0.1-0.1
		c0.6,0.6,1,0.9,1,0.9l1.1,0.9l0.4,0.4l-0.9,1.8c-3.9,7.5,2.5,13.9,2.8,14.2l0.4,0.4l0,0.1l13,14.8L104.6,200.8z"/>
	<path class="st0" d="M85,7.8c2.1,2.2,5.9,6.4,9.1,11.7c2.9,4.9,4.9,13.4,6,19l2.7-3.3l0.4-0.2c0.1-0.1,1.2-0.7,3-1.4
		c-1.1-9.9-4.1-17.9-4.1-18l-0.7-1.7l3.1-2.5c-1.7-3.6-4-6.7-5.1-6.9c-3.1,0.3-11.3,2.3-14.1,3L85,7.8z"/>
	<path class="st0" d="M58.4,96.6l32.3,27.2c1.7-1.2,3.4-2.5,5-3.8c1.6-1.4,3.6-3.1,4.3-5c0-1.8-0.2-3.9-0.5-6.1
		c-6.4-0.7-22.6-3-26.6-9.8c-3.3-5.7-4.7-13.3-5.2-16.7c-1.7-0.6-3.4-1.5-4.7-2.8c-0.3-0.3-0.7-0.8-1.1-1.1c-2.1-1.9-5.3-3.5-8-4.3
		c-0.6-0.1-1.3,0.3-1.5,0.8c0,0.1,0,0.2-0.1,0.2c-0.1,1.5-0.5,11.5-0.1,22.4L58.4,96.6z"/>
	<path class="st0" d="M81.2,11.3c-6.8,3.2-14.2,7.1-15.4,8.5c-0.6,1.1-1.4,3.1-2,4.9c1.9,0.4,3.7,1,5,1.5c3.3,1.3,7.4,5.9,12.2,11.3
		c3.4,3.8,6.9,7.7,9.4,9.5c0.5,0.4,1,0.8,1.5,1.4l3.8-4.6c-0.6-3.7-2.7-15.9-6.1-21.6C86.8,17.2,83.1,13.2,81.2,11.3z"/>
	<path class="st0" d="M95,103.1l-2.9-2.9l-0.2-0.6c-0.9-2.6-2.3-4.3-4.5-5.2c-3.6-1.5-8.3-0.5-11.1,0.4c0.3,0.5,0.5,1.1,0.8,1.6
		C79,99.5,87.3,101.8,95,103.1z"/>
	<path class="st0" d="M89.4,89.7c1.2,0.5,2.3,1.2,3.3,2c-0.7-1-1.5-1.8-2.4-2.4C85.3,85.8,79,85.2,73,83.9c0.3,1.8,0.8,4,1.5,6.2
		C78,88.9,84.2,87.5,89.4,89.7z"/>
	<path class="st0" d="M80.7,165.2c0.6,0.8,1.2,1.5,1.8,2.1l6.1-11.3c-0.7-0.5-1.4-1-2.1-1.5c-0.4-0.3-0.7-0.5-1-0.7
		c-0.7-0.5-1.4-1-2.1-1.5l-5.2,9.6c0.6,0.8,1.1,1.6,1.7,2.2C80.2,164.5,80.4,164.8,80.7,165.2z"/>
	<path class="st0" d="M74.3,156.1c0.5,0.9,1,1.7,1.6,2.5l4.6-8.5c-0.7-0.5-1.4-1.1-2-1.6c-0.3-0.3-0.7-0.5-1-0.8
		c-0.7-0.6-1.4-1.1-2-1.6l-3.3,6.2c0.5,0.9,1,1.8,1.5,2.6C73.8,155.2,74.1,155.7,74.3,156.1z"/>
	<path class="st0" d="M65.6,137c1,3,2,5.8,3.2,8.4c0.4,1,0.9,2,1.3,2.9l2.5-4.7c-0.7-0.6-1.3-1.2-1.9-1.8
		C68.7,140.1,67.1,138.4,65.6,137z"/>
	<path class="st0" d="M34.9,59.9L31,90.7l8,16.6l2.3,0.5l5.9-8c-0.5-9.9-0.2-19.5,0-23.3c-3.5-2-6.3-5.5-5.9-9.7
		c0.1-4.4,1.6-15.3,4.7-20l-12.7-7L26,35.9l-1.3,5.7l5,9L34.9,59.9z"/>
	<g>
		<radialGradient id="SVGID_1_" cx="119.9468" cy="228.7925" r="225.9771" gradientUnits="userSpaceOnUse">
			<stop  offset="0" style="stop-color:#C6FFB8"/>
			<stop  offset="1" style="stop-color:#45D827"/>
		</radialGradient>
		<path class="st1" d="M157.8,3l2.1,3.2c11.2,5.3,17.5,8.9,18.6,10.9c1.1,1.9,2.5,5.8,3.2,7.8c0.4,0.1,0.7,0.3,1.1,0.5l17.6-5.4
			l-6.2-19.2h-45c3.8,0.8,7.4,1.7,7.7,1.8L157.8,3z"/>
		
			<radialGradient id="SVGID_00000067223031145284476930000014293844050121669515_" cx="119.9574" cy="228.7925" r="225.8856" gradientUnits="userSpaceOnUse">
			<stop  offset="0" style="stop-color:#C6FFB8"/>
			<stop  offset="1" style="stop-color:#45D827"/>
		</radialGradient>
		<polygon style="fill:url(#SVGID_00000067223031145284476930000014293844050121669515_);" points="120,208.6 100.4,208.6 
			93.9,201.1 97.8,213 120,229.1 142.1,213 146,201.1 139.5,208.6 		"/>
		
			<radialGradient id="SVGID_00000153695540479556064050000016329166163890762428_" cx="119.9468" cy="228.7925" r="225.9771" gradientUnits="userSpaceOnUse">
			<stop  offset="0" style="stop-color:#C6FFB8"/>
			<stop  offset="1" style="stop-color:#45D827"/>
		</radialGradient>
		<path style="fill:url(#SVGID_00000153695540479556064050000016329166163890762428_);" d="M58.2,25c0.7-2,2.1-5.9,3.2-7.8
			c1.1-2,7.4-5.7,18.6-10.9L82.1,3l1-0.2c0.3-0.1,3.8-1,7.7-1.8h-45l-6.2,19.2l17.6,5.4C57.5,25.3,57.9,25.1,58.2,25z"/>
		
			<radialGradient id="SVGID_00000161610206859771830110000013435197282131301286_" cx="119.9468" cy="228.7925" r="225.9771" gradientUnits="userSpaceOnUse">
			<stop  offset="0" style="stop-color:#C6FFB8"/>
			<stop  offset="1" style="stop-color:#45D827"/>
		</radialGradient>
		<path style="fill:url(#SVGID_00000161610206859771830110000013435197282131301286_);" d="M203.3,121.6c-0.3,0-0.7,0.1-1,0.3
			c-0.8,0.6-0.9,1.6-0.4,2.4c0.6,0.8,1.6,0.9,2.4,0.4c0.8-0.6,0.9-1.6,0.4-2.4C204.3,121.8,203.8,121.6,203.3,121.6z"/>
		
			<radialGradient id="SVGID_00000070087598468929926000000002941280312917943954_" cx="119.9468" cy="228.7925" r="225.9771" gradientUnits="userSpaceOnUse">
			<stop  offset="0" style="stop-color:#C6FFB8"/>
			<stop  offset="1" style="stop-color:#45D827"/>
		</radialGradient>
		<path style="fill:url(#SVGID_00000070087598468929926000000002941280312917943954_);" d="M237.1,133.3l-27.2,19.7
			c0.2,0.9,0.3,1.8,0.1,2.7c-0.3,1.8-1.3,3.4-2.7,4.4c-1.2,0.9-2.6,1.3-4,1.3c-0.4,0-0.7,0-1.1-0.1c-1.8-0.3-3.4-1.3-4.4-2.7
			c-1.1-1.5-1.5-3.3-1.2-5.1c0.3-1.8,1.3-3.4,2.7-4.4c1.5-1.1,3.3-1.5,5.1-1.2c0.9,0.1,1.8,0.5,2.5,1l28.5-20.7l-2.5-7.6l-23.1,16.8
			c0.6,2.6-0.3,5.5-2.6,7.2c-1.2,0.9-2.6,1.3-4,1.3c-2.1,0-4.2-1-5.5-2.8c-2.2-3-1.5-7.3,1.5-9.5c2.3-1.7,5.3-1.7,7.6-0.3l24.4-17.7
			l-2.5-7.6l-18.9,13.8c0.6,2.6-0.3,5.5-2.6,7.2c-1.2,0.9-2.6,1.3-4,1.3c-2.1,0-4.2-1-5.5-2.8c-2.2-3-1.5-7.3,1.5-9.5
			c2.3-1.7,5.3-1.7,7.6-0.3l20.3-14.7l-14.8-45.5l-2.1,3.7l3.9,30.6l-9.7,20.2l-7.9,1.8l-3.1-4.3c0,6.4-0.9,15.9-4.5,27.3l4.1,7.5
			l-0.4,1.1c-0.3,0.8-6.9,20-13.7,32.9c-3.2,6-9.8,13.6-16.2,20l77.2-56.1L237.1,133.3z"/>
		
			<radialGradient id="SVGID_00000004547642034579750390000002998384679224552097_" cx="119.9468" cy="228.7925" r="225.9771" gradientUnits="userSpaceOnUse">
			<stop  offset="0" style="stop-color:#C6FFB8"/>
			<stop  offset="1" style="stop-color:#45D827"/>
		</radialGradient>
		<path style="fill:url(#SVGID_00000004547642034579750390000002998384679224552097_);" d="M203.3,137.3c-0.3,0-0.7,0.1-1,0.3
			c-0.8,0.6-0.9,1.6-0.4,2.4c0.6,0.8,1.6,0.9,2.4,0.4c0.8-0.6,0.9-1.6,0.4-2.4C204.4,137.5,203.8,137.3,203.3,137.3z"/>
		
			<radialGradient id="SVGID_00000021831244880969362880000011998700385397768084_" cx="119.9468" cy="228.7925" r="225.9771" gradientUnits="userSpaceOnUse">
			<stop  offset="0" style="stop-color:#C6FFB8"/>
			<stop  offset="1" style="stop-color:#45D827"/>
		</radialGradient>
		<path style="fill:url(#SVGID_00000021831244880969362880000011998700385397768084_);" d="M203.6,153c-0.1,0-0.2,0-0.3,0
			c-0.4,0-0.7,0.1-1,0.3c-0.4,0.3-0.6,0.7-0.7,1.1c-0.1,0.5,0,0.9,0.3,1.3c0.3,0.4,0.7,0.6,1.1,0.7c0.5,0.1,0.9,0,1.3-0.3
			c0.4-0.3,0.6-0.7,0.7-1.1c0.1-0.5,0-0.9-0.3-1.3C204.4,153.3,204,153.1,203.6,153z"/>
		
			<radialGradient id="SVGID_00000083780707143870796480000014719167135121451163_" cx="119.9468" cy="228.7925" r="225.9771" gradientUnits="userSpaceOnUse">
			<stop  offset="0" style="stop-color:#C6FFB8"/>
			<stop  offset="1" style="stop-color:#45D827"/>
		</radialGradient>
		<path style="fill:url(#SVGID_00000083780707143870796480000014719167135121451163_);" d="M47.3,145.1l-0.4-1.1l4.1-7.5
			c-3.6-11.5-4.5-20.9-4.5-27.3l-3.1,4.3l-7.9-1.8l-9.7-20.2L29.6,61l-2.1-3.7l-14.8,45.5L33,117.5c2.3-1.4,5.3-1.4,7.6,0.3
			c3,2.2,3.7,6.5,1.5,9.5c-1.3,1.8-3.4,2.8-5.5,2.8c-1.4,0-2.8-0.4-4-1.3c-2.3-1.7-3.3-4.5-2.6-7.2l-18.9-13.8l-2.5,7.6L33,133.2
			c2.3-1.4,5.3-1.4,7.6,0.3c3,2.2,3.7,6.5,1.5,9.5c-1.3,1.8-3.4,2.8-5.5,2.8c-1.4,0-2.8-0.4-4-1.3c-2.3-1.7-3.3-4.5-2.6-7.2
			L6.9,120.6l-2.5,7.6L33,148.9c0.8-0.5,1.6-0.8,2.5-1c1.8-0.3,3.6,0.1,5.1,1.2c3,2.2,3.7,6.5,1.5,9.5c-1.1,1.5-2.6,2.4-4.4,2.7
			c-0.4,0.1-0.7,0.1-1.1,0.1c-1.4,0-2.8-0.4-4-1.3c-1.5-1.1-2.4-2.6-2.7-4.4c-0.1-0.9-0.1-1.8,0.1-2.7L2.8,133.3L0,141.9l77.3,56.1
			c-6.4-6.5-13.1-14-16.3-20.1C54.2,165.1,47.6,145.9,47.3,145.1z"/>
		
			<radialGradient id="SVGID_00000176727903718447201060000011462498951517508490_" cx="119.9468" cy="228.7925" r="225.9771" gradientUnits="userSpaceOnUse">
			<stop  offset="0" style="stop-color:#C6FFB8"/>
			<stop  offset="1" style="stop-color:#45D827"/>
		</radialGradient>
		<path style="fill:url(#SVGID_00000176727903718447201060000011462498951517508490_);" d="M35.6,156.1c0.4,0.3,0.8,0.4,1.3,0.3
			c0.5-0.1,0.8-0.3,1.1-0.7c0.6-0.8,0.4-1.8-0.4-2.4c-0.4-0.3-0.8-0.4-1.3-0.3c-0.5,0.1-0.8,0.3-1.1,0.7c-0.3,0.4-0.4,0.8-0.3,1.3
			C35,155.4,35.2,155.8,35.6,156.1z"/>
		
			<radialGradient id="SVGID_00000106837676902329086400000017932325554218258607_" cx="119.9468" cy="228.7925" r="225.9771" gradientUnits="userSpaceOnUse">
			<stop  offset="0" style="stop-color:#C6FFB8"/>
			<stop  offset="1" style="stop-color:#45D827"/>
		</radialGradient>
		<path style="fill:url(#SVGID_00000106837676902329086400000017932325554218258607_);" d="M38,124.3c0.6-0.8,0.4-1.8-0.4-2.4
			c-0.8-0.6-1.8-0.4-2.4,0.4c-0.6,0.8-0.4,1.8,0.4,2.4C36.4,125.2,37.5,125,38,124.3z"/>
		
			<radialGradient id="SVGID_00000181808510518528945730000011845527706299089587_" cx="119.9468" cy="228.7925" r="225.9771" gradientUnits="userSpaceOnUse">
			<stop  offset="0" style="stop-color:#C6FFB8"/>
			<stop  offset="1" style="stop-color:#45D827"/>
		</radialGradient>
		<path style="fill:url(#SVGID_00000181808510518528945730000011845527706299089587_);" d="M38,140c0.6-0.8,0.4-1.8-0.4-2.4
			c-0.3-0.2-0.7-0.3-1-0.3c-0.5,0-1.1,0.2-1.4,0.7c-0.6,0.8-0.4,1.8,0.4,2.4C36.4,140.9,37.4,140.8,38,140z"/>
	</g>
</g>
</svg>
