<svg width="113" height="113" viewBox="0 0 113 113" fill="none" xmlns="http://www.w3.org/2000/svg">
<path d="M57.6016 40.0677C57.6016 39.2393 56.93 38.5677 56.1016 38.5677C55.2731 38.5677 54.6016 39.2393 54.6016 40.0677L57.6016 40.0677ZM55.0409 73.1827C55.6267 73.7685 56.5764 73.7685 57.1622 73.1827L66.7082 63.6367C67.2939 63.0509 67.2939 62.1012 66.7082 61.5154C66.1224 60.9296 65.1726 60.9296 64.5868 61.5154L56.1016 70.0007L47.6163 61.5154C47.0305 60.9296 46.0807 60.9296 45.495 61.5154C44.9092 62.1012 44.9092 63.0509 45.495 63.6367L55.0409 73.1827ZM54.6016 40.0677L54.6016 72.122L57.6016 72.122L57.6016 40.0677L54.6016 40.0677Z" fill="white"/>
</svg>
