<svg width="113" height="113" viewBox="0 0 113 113" fill="none" xmlns="http://www.w3.org/2000/svg">
<path d="M49.1142 3.35919C49.7556 3.26637 50.3383 3.29923 50.8624 3.45778C51.3865 3.61634 51.8181 3.88933 52.1571 4.27676C52.4961 4.6642 52.7092 5.15878 52.7963 5.76051L52.8444 6.09304L51.3005 6.31651L51.2524 5.98398C51.1801 5.48518 50.9713 5.13144 50.6259 4.92278C50.2815 4.72203 49.8441 4.66005 49.3137 4.73683C48.7753 4.81476 48.3909 4.97952 48.1606 5.23111C47.9223 5.48384 47.8273 5.77648 47.8754 6.10901C47.9087 6.33862 48.0029 6.51494 48.1581 6.63797C48.3054 6.76215 48.5121 6.84945 48.7781 6.89987C49.0372 6.95935 49.3507 7.00289 49.7185 7.0305L50.0002 7.05034C50.5886 7.09451 51.1024 7.18181 51.5416 7.31223C51.9741 7.45172 52.3241 7.66378 52.5916 7.94839C52.8512 8.23414 53.0177 8.63038 53.0911 9.1371C53.1644 9.64381 53.1081 10.0925 52.9222 10.4832C52.7295 10.8829 52.4291 11.2093 52.0212 11.4623C51.6065 11.7245 51.1022 11.8985 50.5084 11.9844C49.9146 12.0704 49.3732 12.0437 48.8841 11.9043C48.3884 11.774 47.9806 11.5258 47.6609 11.1598C47.3344 10.8029 47.1276 10.3236 47.0404 9.72189L46.9889 9.3656L48.5328 9.14213L48.5844 9.49841C48.6302 9.81511 48.7302 10.0593 48.8844 10.231C49.0318 10.4117 49.2266 10.529 49.4689 10.5829C49.7122 10.6447 49.9923 10.6526 50.309 10.6068C50.784 10.538 51.1231 10.396 51.3264 10.1807C51.5229 9.97438 51.5988 9.71685 51.5541 9.40807C51.5242 9.20222 51.4476 9.03548 51.324 8.90787C51.1925 8.7814 51.013 8.68613 50.7855 8.62206C50.558 8.55799 50.2728 8.5144 49.9299 8.49127L49.6482 8.47143C49.036 8.4307 48.4979 8.34288 48.0338 8.20797C47.5618 8.07421 47.1795 7.86279 46.8871 7.5737C46.5946 7.28461 46.4118 6.8867 46.3384 6.37999C46.265 5.87327 46.3309 5.40702 46.536 4.98125C46.7344 4.56454 47.055 4.21096 47.498 3.92051C47.9342 3.63912 48.4729 3.45202 49.1142 3.35919Z" fill="white"/>
<path d="M35.9195 6.95449C36.8797 6.55491 37.7511 6.50421 38.5338 6.80239C39.3195 7.10796 39.9199 7.75928 40.3349 8.75636L41.1096 10.6176C41.5246 11.6147 41.5621 12.4959 41.2221 13.2613C40.8852 14.034 40.2366 14.6202 39.2764 15.0198C38.3236 15.4163 37.4796 15.4599 36.7443 15.1507C36.0047 14.8519 35.4459 14.2483 35.0678 13.3398L35.0401 13.2734L36.4804 12.674L36.5265 12.7848C36.7171 13.2427 37.0031 13.5656 37.3846 13.7534C37.7587 13.9444 38.2079 13.9307 38.7323 13.7125C39.2493 13.4973 39.5895 13.1695 39.7527 12.729C39.916 12.2884 39.8839 11.7949 39.6564 11.2483L38.8633 9.34279C38.6389 8.80363 38.3113 8.43303 37.8806 8.231C37.453 8.03636 36.9807 8.04662 36.4636 8.26178C35.9392 8.48001 35.613 8.78909 35.4848 9.18903C35.3523 9.59942 35.3798 10.0299 35.5674 10.4804L35.6504 10.6798L34.2101 11.2792L34.1455 11.1241C33.7674 10.2156 33.7314 9.39011 34.0376 8.64749C34.3394 7.91533 34.9667 7.35099 35.9195 6.95449Z" fill="white"/>
<path d="M26.9375 11.8202L31.9878 18.5324L29.0726 20.7255C28.6507 21.0429 28.2278 21.2459 27.8039 21.3346C27.38 21.4232 26.9808 21.3982 26.6061 21.2596C26.2315 21.1209 25.9071 20.8694 25.633 20.505L25.5464 20.39C25.2434 19.9872 25.0939 19.5891 25.0982 19.1955C25.1024 18.8019 25.2018 18.4418 25.3965 18.1151L25.2667 17.9425C25.0013 18.1221 24.7358 18.1817 24.4701 18.1213C24.2092 18.0673 23.9778 17.906 23.7757 17.6375L22.1236 15.4417L23.3894 14.4894L24.9045 16.5031C25.0199 16.6565 25.1553 16.7499 25.3105 16.7833C25.4594 16.8214 25.6265 16.7708 25.8119 16.6313L27.5764 15.3039L25.6717 12.7725L26.9375 11.8202ZM28.4421 16.4546L26.927 17.5944C26.6265 17.8205 26.4533 18.0759 26.4073 18.3608C26.3598 18.6568 26.437 18.9391 26.639 19.2076L26.7112 19.3035C26.9132 19.572 27.1574 19.7236 27.4439 19.7584C27.7352 19.7995 28.0342 19.7047 28.3411 19.4738L29.8562 18.334L28.4421 16.4546Z" fill="white"/>
<path d="M14.6075 22.9989C15.2596 22.1683 16.0048 21.6854 16.8432 21.5502C17.6879 21.42 18.5351 21.6883 19.3846 22.3551L20.9704 23.5999C21.82 24.2667 22.2786 25.0234 22.3464 25.8699C22.4204 26.7213 22.1314 27.5623 21.4793 28.3929C20.8272 29.2235 20.0788 29.7039 19.2341 29.8341C18.3957 29.9693 17.5517 29.7035 16.7022 29.0366L15.1164 27.7919C14.2668 27.125 13.805 26.3659 13.731 25.5145C13.6632 24.668 13.9554 23.8295 14.6075 22.9989ZM15.7213 23.8732C15.3557 24.3388 15.207 24.8068 15.275 25.2772C15.3431 25.7476 15.6037 26.1607 16.0568 26.5163L17.7181 27.8204C18.1712 28.176 18.6343 28.331 19.1074 28.2854C19.5806 28.2398 19.9999 27.9842 20.3655 27.5186C20.7261 27.0592 20.8749 26.5912 20.8117 26.1145C20.7437 25.6441 20.4831 25.2311 20.03 24.8755L18.3687 23.5714C17.9156 23.2158 17.4525 23.0607 16.9794 23.1063C16.5013 23.1582 16.0819 23.4138 15.7213 23.8732Z" fill="white"/>
<path d="M8.68311 32.4322L16.3705 35.818L15.7319 37.2676L9.36238 34.4622L7.81435 37.9763L6.49651 37.3959L8.68311 32.4322Z" fill="white"/>
<path d="M4.45153 44.0351L12.7104 45.5683L12.4213 47.1257L5.57818 45.8553L4.87719 49.6308L3.46138 49.368L4.45153 44.0351Z" fill="white"/>
<path d="M4.24199 68.4367C4.09366 67.8059 4.07566 67.2226 4.18796 66.6866C4.30027 66.1507 4.53465 65.697 4.89109 65.3256C5.24753 64.9542 5.72169 64.6989 6.31355 64.5597L6.64063 64.4828L6.99771 66.0014L6.67063 66.0783C6.18001 66.1936 5.8458 66.4325 5.66801 66.7948C5.49801 67.1552 5.47436 67.5964 5.59704 68.1181C5.72157 68.6477 5.91917 69.0163 6.18987 69.2238C6.4624 69.4392 6.7622 69.5084 7.08928 69.4315C7.31513 69.3784 7.48257 69.2692 7.59162 69.1038C7.7025 68.9463 7.77147 68.7328 7.79854 68.4635C7.83522 68.2001 7.8513 67.884 7.84678 67.5153L7.84201 67.2329C7.83476 66.6429 7.87698 66.1234 7.96867 65.6745C8.06997 65.2316 8.25074 64.8644 8.51097 64.5732C8.77303 64.2897 9.15327 64.0893 9.65168 63.9721C10.1501 63.855 10.602 63.872 11.0074 64.0232C11.4224 64.1804 11.7737 64.4512 12.0613 64.8356C12.3585 65.2259 12.5758 65.7131 12.7132 66.2972C12.8505 66.8813 12.871 67.4229 12.7748 67.9222C12.6881 68.4275 12.4764 68.8553 12.1397 69.2056C11.8126 69.562 11.3531 69.8097 10.7612 69.9488L10.4108 70.0312L10.0537 68.5127L10.4041 68.4303C10.7156 68.357 10.9502 68.2361 11.1078 68.0676C11.275 67.905 11.3749 67.7007 11.4075 67.4547C11.4478 67.2069 11.4314 66.9273 11.3581 66.6158C11.2482 66.1485 11.0772 65.823 10.845 65.6393C10.6224 65.4615 10.3592 65.4083 10.0555 65.4797C9.85301 65.5273 9.69359 65.6182 9.57721 65.7524C9.46267 65.8944 9.3834 66.0815 9.33939 66.3138C9.29538 66.546 9.27678 66.8339 9.2836 67.1775L9.28837 67.4599C9.30111 68.0732 9.26049 68.617 9.16651 69.091C9.07436 69.5729 8.89703 69.9721 8.6345 70.2886C8.37197 70.6051 7.9915 70.8219 7.49309 70.9391C6.99468 71.0563 6.52446 71.0312 6.08244 70.8639C5.65003 70.7026 5.26987 70.414 4.94194 69.998C4.62363 69.5879 4.39032 69.0675 4.24199 68.4367Z" fill="white"/>
<path d="M8.97106 81.2652C8.48935 80.3435 8.36294 79.4798 8.59183 78.6742C8.82781 77.8649 9.4244 77.2101 10.3816 76.71L12.1684 75.7763C13.1256 75.2761 14.0002 75.1621 14.7923 75.4342C15.5915 75.7025 16.232 76.2976 16.7137 77.2193C17.1917 78.1339 17.3087 78.9709 17.0647 79.7303C16.8314 80.493 16.2788 81.1023 15.4067 81.558L15.3428 81.5913L14.6203 80.2088L14.7266 80.1532C15.1662 79.9235 15.463 79.6104 15.6169 79.2141C15.7745 78.8248 15.7218 78.3785 15.4587 77.8751C15.1993 77.3788 14.8431 77.0685 14.39 76.9442C13.9369 76.8199 13.448 76.8949 12.9233 77.169L11.094 78.1249C10.5764 78.3954 10.2357 78.7539 10.072 79.2005C9.91531 79.6435 9.96667 80.1131 10.2261 80.6094C10.4891 81.1128 10.8255 81.4109 11.2351 81.5038C11.6555 81.6 12.0819 81.5351 12.5144 81.3091L12.7059 81.2091L13.4285 82.5917L13.2796 82.6695C12.4074 83.1252 11.5881 83.2329 10.8216 82.9925C10.0659 82.7556 9.44907 82.1798 8.97106 81.2652Z" fill="white"/>
<path d="M14.6045 89.7915L20.852 84.1765L23.2907 86.8895C23.6437 87.2822 23.8828 87.6858 24.008 88.1003C24.1332 88.5148 24.1431 88.9147 24.0376 89.2999C23.9321 89.6852 23.7097 90.0302 23.3706 90.335L23.2635 90.4313C22.8886 90.7682 22.505 90.9517 22.1125 90.9817C21.72 91.0118 21.3525 90.9441 21.0101 90.7786L20.8494 90.9229C21.0515 91.1716 21.134 91.4309 21.0969 91.7009C21.0658 91.9654 20.9253 92.21 20.6754 92.4346L18.6316 94.2716L17.5727 93.0935L19.4469 91.409C19.5897 91.2807 19.671 91.1377 19.6907 90.9802C19.7158 90.8286 19.6508 90.6665 19.4957 90.4939L18.0196 88.8519L15.6634 90.9695L14.6045 89.7915ZM19.0906 87.8893L20.3581 89.2993C20.6095 89.579 20.8791 89.7293 21.1669 89.7503C21.466 89.7719 21.7405 89.6704 21.9904 89.4458L22.0796 89.3656C22.3295 89.141 22.4593 88.8845 22.469 88.5961C22.4846 88.3024 22.3641 88.0127 22.1074 87.7271L20.8399 86.3171L19.0906 87.8893Z" fill="white"/>
<path d="M26.8147 101.101C25.9304 100.523 25.3845 99.823 25.1768 98.9996C24.9736 98.1695 25.1671 97.3023 25.7576 96.398L26.8597 94.7099C27.4501 93.8056 28.164 93.2828 29.0014 93.1416C29.8432 92.9937 30.7062 93.2083 31.5905 93.7855C32.4748 94.3628 33.0186 95.0664 33.2218 95.8965C33.4295 96.7199 33.2381 97.5838 32.6476 98.4881L31.5455 100.176C30.9551 101.081 30.239 101.607 29.3972 101.755C28.5598 101.896 27.699 101.678 26.8147 101.101ZM27.5888 99.9149C28.0845 100.238 28.5637 100.346 29.0265 100.237C29.4892 100.128 29.878 99.8329 30.1929 99.3505L31.3475 97.5821C31.6624 97.0998 31.7765 96.625 31.6899 96.1576C31.6033 95.6903 31.3121 95.2948 30.8164 94.9712C30.3274 94.652 29.8482 94.5446 29.3787 94.6489C28.916 94.7577 28.5272 95.0532 28.2123 95.5355L27.0577 97.304C26.7428 97.7863 26.6287 98.2611 26.7153 98.7285C26.8086 99.2002 27.0998 99.5956 27.5888 99.9149Z" fill="white"/>
<path d="M36.7266 106.182L39.4308 98.2291L40.9305 98.7389L38.6899 105.328L42.3255 106.564L41.8619 107.928L36.7266 106.182Z" fill="white"/>
<path d="M48.6567 109.389L49.4653 101.028L51.0419 101.18L50.372 108.108L54.1942 108.478L54.0556 109.911L48.6567 109.389Z" fill="white"/>
<path d="M72.9842 107.471C72.3687 107.674 71.7891 107.743 71.2454 107.678C70.7017 107.612 70.2294 107.418 69.8283 107.096C69.4272 106.773 69.1316 106.323 68.9414 105.745L68.8363 105.426L70.3181 104.938L70.4232 105.257C70.5808 105.736 70.8478 106.048 71.2243 106.194C71.5982 106.332 72.0397 106.317 72.5488 106.149C73.0655 105.979 73.4155 105.75 73.5987 105.463C73.7895 105.172 73.8323 104.868 73.7272 104.548C73.6547 104.328 73.5313 104.171 73.357 104.077C73.1904 103.98 72.9718 103.93 72.7011 103.926C72.4355 103.913 72.1192 103.924 71.7523 103.961L71.4713 103.99C70.8842 104.048 70.363 104.052 69.9078 103.999C69.4578 103.937 69.0763 103.789 68.7634 103.555C68.4582 103.319 68.2255 102.957 68.0653 102.471C67.9052 101.985 67.8828 101.533 67.9981 101.116C68.1186 100.689 68.3578 100.315 68.7156 99.9954C69.0786 99.6653 69.545 99.4064 70.115 99.2188C70.6849 99.0312 71.2227 98.9636 71.7285 99.016C72.2394 99.0584 72.684 99.232 73.0624 99.537C73.4458 99.8319 73.7327 100.268 73.9228 100.846L74.0354 101.187L72.5537 101.675L72.4411 101.333C72.341 101.029 72.2001 100.806 72.0185 100.664C71.842 100.512 71.6297 100.43 71.3819 100.419C71.1315 100.4 70.8543 100.441 70.5503 100.541C70.0944 100.691 69.7851 100.89 69.6222 101.137C69.4645 101.374 69.4345 101.641 69.5321 101.937C69.5971 102.135 69.7016 102.286 69.8454 102.39C69.9968 102.492 70.1901 102.555 70.4253 102.578C70.6605 102.602 70.9489 102.595 71.2906 102.559L71.5715 102.529C72.1815 102.463 72.7267 102.456 73.2072 102.509C73.6952 102.559 74.1084 102.701 74.4465 102.935C74.7847 103.169 75.0338 103.529 75.194 104.015C75.3541 104.501 75.3701 104.972 75.242 105.427C75.1189 105.872 74.8645 106.275 74.4786 106.638C74.0978 106.991 73.5997 107.269 72.9842 107.471Z" fill="white"/>
<path d="M85.3558 101.641C84.4795 102.202 83.6301 102.403 82.8075 102.245C81.9807 102.08 81.2764 101.543 80.6947 100.633L79.609 98.9342C79.0273 98.0242 78.8375 97.1628 79.0396 96.3501C79.2373 95.5306 79.7744 94.8408 80.6507 94.2808C81.5203 93.725 82.3439 93.5356 83.1217 93.7126C83.9019 93.8786 84.557 94.3761 85.087 95.2052L85.1258 95.2659L83.8113 96.106L83.7467 96.0049C83.4795 95.587 83.1418 95.3186 82.7335 95.1997C82.332 95.0766 81.8919 95.168 81.4133 95.4738C80.9415 95.7754 80.6634 96.1573 80.579 96.6195C80.4946 97.0816 80.6119 97.5621 80.9307 98.0609L82.0424 99.8C82.3569 100.292 82.7438 100.6 83.203 100.724C83.6579 100.842 84.1213 100.75 84.5932 100.448C85.0718 100.143 85.3395 99.7815 85.3963 99.3654C85.4556 98.9383 85.3538 98.5191 85.091 98.1079L84.9747 97.9259L86.2891 97.0858L86.3796 97.2274C86.9096 98.0565 87.0882 98.8632 86.9155 99.6477C86.7453 100.421 86.2254 101.086 85.3558 101.641Z" fill="white"/>
<path d="M93.3563 95.2905L87.2182 89.556L89.7088 86.8906C90.0693 86.5048 90.4506 86.2315 90.8527 86.0707C91.2547 85.9098 91.6523 85.8652 92.0453 85.9368C92.4383 86.0083 92.8014 86.1997 93.1346 86.511L93.2398 86.6093C93.6081 86.9534 93.8243 87.3196 93.8884 87.708C93.9526 88.0963 93.9171 88.4683 93.782 88.8238L93.9398 88.9712C94.17 88.7483 94.4211 88.6436 94.6933 88.657C94.9596 88.6649 95.2155 88.7836 95.461 89.0129L97.4691 90.8889L96.3876 92.0463L94.5462 90.326C94.4059 90.1949 94.2564 90.1264 94.0977 90.1205C93.9445 90.1087 93.7887 90.1876 93.6303 90.3571L92.1228 91.9704L94.4378 94.1331L93.3563 95.2905ZM91.0706 90.9874L92.365 89.602C92.6217 89.3273 92.748 89.0456 92.7439 88.7571C92.7394 88.4573 92.6143 88.1927 92.3688 87.9633L92.2811 87.8814C92.0356 87.652 91.7688 87.5451 91.4806 87.5605C91.1866 87.5705 90.9085 87.7158 90.6464 87.9964L89.3519 89.3817L91.0706 90.9874Z" fill="white"/>
<path d="M103.565 82.1424C103.067 83.0736 102.416 83.6784 101.614 83.957C100.805 84.2317 99.924 84.1144 98.9717 83.6051L97.194 82.6542C96.2417 82.1448 95.6587 81.4792 95.4452 80.6573C95.2245 79.8317 95.3633 78.9533 95.8614 78.0221C96.3595 77.091 97.0132 76.4881 97.8226 76.2133C98.6248 75.9347 99.5021 76.0501 100.454 76.5595L102.232 77.5104C103.184 78.0197 103.771 78.6873 103.992 79.5129C104.205 80.3348 104.063 81.2113 103.565 82.1424ZM102.316 81.4746C102.595 80.9526 102.661 80.4659 102.512 80.0144C102.363 79.5629 102.035 79.2014 101.527 78.9297L99.6649 77.9336C99.157 77.6619 98.674 77.5896 98.216 77.7165C97.7579 77.8435 97.3893 78.168 97.11 78.69C96.8345 79.2049 96.7692 79.6917 96.9141 80.1502C97.0627 80.6016 97.3909 80.9632 97.8989 81.2349L99.7612 82.231C100.269 82.5027 100.752 82.575 101.21 82.448C101.672 82.314 102.041 81.9895 102.316 81.4746Z" fill="white"/>
<path d="M107.761 71.8253L99.603 69.8242L99.9804 68.2858L106.74 69.9439L107.655 66.2145L109.054 66.5576L107.761 71.8253Z" fill="white"/>
<path d="M109.917 59.6638L101.517 59.5863L101.532 58.0024L108.492 58.0666L108.527 54.2267L109.967 54.24L109.917 59.6638Z" fill="white"/>
<path d="M106.045 35.9768C106.345 36.6929 106.435 37.3445 106.316 37.9316C106.197 38.5188 105.87 38.9806 105.334 39.317L104.465 38.1713C104.702 38.0117 104.869 37.8421 104.968 37.6623C105.063 37.4751 105.107 37.2791 105.099 37.0742C105.081 36.865 105.028 36.6533 104.938 36.4393C104.802 36.1145 104.647 35.8977 104.471 35.7889C104.289 35.6832 104.112 35.6658 103.942 35.7367C103.773 35.8076 103.674 35.9354 103.647 36.12C103.613 36.3077 103.634 36.5763 103.711 36.9258L103.785 37.259C103.871 37.6736 103.918 38.0659 103.925 38.4357C103.925 38.8087 103.851 39.1389 103.702 39.4264C103.553 39.7139 103.298 39.9332 102.936 40.0842C102.39 40.3123 101.89 40.2872 101.435 40.0088C100.974 39.7335 100.607 39.2711 100.336 38.6214C100.08 38.0087 100.004 37.4424 100.107 36.9223C100.211 36.4022 100.458 35.9869 100.848 35.6765L101.788 36.8055C101.532 36.9817 101.384 37.1868 101.343 37.4206C101.298 37.6471 101.332 37.8933 101.443 38.159C101.554 38.4248 101.687 38.6077 101.841 38.7079C101.988 38.8112 102.143 38.8289 102.306 38.7611C102.483 38.6871 102.585 38.5578 102.612 38.3731C102.631 38.1916 102.611 37.9661 102.55 37.6966L102.476 37.3634C102.377 36.9192 102.321 36.5048 102.308 36.1202C102.284 35.7313 102.347 35.3931 102.495 35.1056C102.634 34.8138 102.895 34.5877 103.279 34.4274C103.854 34.187 104.389 34.2108 104.882 34.499C105.365 34.7829 105.753 35.2755 106.045 35.9768Z" fill="white"/>
<path d="M99.8301 24.8874C100.173 25.3506 100.388 25.8433 100.475 26.3655C100.558 26.8812 100.497 27.384 100.292 27.8738C100.087 28.3636 99.724 28.8011 99.2029 29.1863L99.0678 29.2861C98.5468 29.6713 98.022 29.8901 97.4936 29.9425C96.9652 29.9948 96.4666 29.9058 95.9978 29.6753C95.5242 29.4385 95.1162 29.0885 94.7737 28.6253C94.436 28.1686 94.2263 27.7167 94.1446 27.2698C94.0629 26.8228 94.0898 26.395 94.2254 25.9864C94.3499 25.576 94.5652 25.2079 94.8715 24.882L95.9927 25.8738C95.8188 26.0422 95.6879 26.2284 95.6001 26.4326C95.5122 26.6368 95.4851 26.8558 95.5187 27.0897C95.5476 27.3171 95.6524 27.553 95.8331 27.7974C96.0138 28.0419 96.2326 28.2234 96.4894 28.3419C96.735 28.4588 97.0067 28.4967 97.3046 28.4556C97.5914 28.4127 97.8859 28.2796 98.1883 28.0561L98.2847 27.9847C98.5871 27.7612 98.804 27.5163 98.9354 27.25C99.0557 26.9821 99.0992 26.7112 99.0658 26.4373C99.0213 26.1618 98.9087 25.9019 98.728 25.6574C98.4569 25.2908 98.1591 25.0831 97.8346 25.0345C97.4989 24.9842 97.1577 25.0474 96.8108 25.2242L96.2203 23.8402C96.6231 23.6717 97.0421 23.5858 97.4774 23.5824C97.9014 23.5774 98.3152 23.6794 98.7185 23.8886C99.1219 24.0978 99.4925 24.4307 99.8301 24.8874Z" fill="white"/>
<path d="M92.6975 17.106L88.8064 21.61L87.6803 20.6373L88.1197 20.1288L87.9562 19.9876C87.7327 20.1117 87.5087 20.1508 87.2841 20.1048C87.0535 20.0536 86.8352 19.939 86.6294 19.7612L86.0845 19.2906L86.9631 18.2736L87.5262 18.7599C87.8168 19.0109 88.1239 19.1388 88.4476 19.1435C88.766 19.1543 89.0638 18.9992 89.341 18.6784L91.5533 16.1176L92.6975 17.106Z" fill="white"/>
<path d="M82.063 9.33608C82.5851 9.61508 82.9978 9.97163 83.301 10.4057C83.6041 10.8399 83.7682 11.3221 83.7932 11.8525C83.8181 12.3828 83.6798 12.9302 83.3782 13.4947L83.2877 13.664C82.986 14.2284 82.6078 14.6477 82.1529 14.9216C81.6981 15.1956 81.206 15.3272 80.6766 15.3165C80.1471 15.3057 79.6214 15.1608 79.0992 14.8818C78.5771 14.6028 78.1644 14.2463 77.8613 13.8121C77.5581 13.378 77.394 12.8958 77.369 12.3654C77.3441 11.8351 77.4824 11.2877 77.7841 10.7232L77.8746 10.5539C78.1762 9.98944 78.5545 9.57022 79.0093 9.29624C79.4641 9.02226 79.9562 8.89065 80.4857 8.90143C81.0151 8.9122 81.5409 9.05709 82.063 9.33608ZM81.4295 10.5214C81.0203 10.3028 80.6118 10.2523 80.2042 10.3701C79.7928 10.4949 79.4551 10.8043 79.1912 11.2982L79.1346 11.404C78.8706 11.8979 78.803 12.347 78.9316 12.7514C79.0494 13.159 79.3164 13.474 79.7327 13.6965C80.1419 13.9151 80.5523 13.962 80.9637 13.8372C81.3713 13.7194 81.7071 13.4136 81.9711 12.9197L82.0276 12.8138C82.2916 12.3199 82.3611 11.8673 82.2363 11.4559C82.1077 11.0516 81.8388 10.7401 81.4295 10.5214Z" fill="white"/>
<path d="M72.3221 5.39941L70.011 13.4752L68.5574 13.0593L70.8685 4.98347L72.3221 5.39941Z" fill="white"/>
<path d="M63.2686 3.43457L62.3864 11.7881L60.8828 11.6294L61.7649 3.27582L63.2686 3.43457Z" fill="white"/>
</svg>
